<svg width="32" height="32" viewBox="0 0 32 32" fill="none" xmlns="http://www.w3.org/2000/svg">
  <defs>
    <linearGradient id="bgGradient" x1="0%" y1="0%" x2="100%" y2="100%">
      <stop offset="0%" style="stop-color:#1a1625;stop-opacity:1" />
      <stop offset="100%" style="stop-color:#251a30;stop-opacity:1" />
    </linearGradient>
    <linearGradient id="iconGradient" x1="0%" y1="0%" x2="100%" y2="100%">
      <stop offset="0%" style="stop-color:#c084fc;stop-opacity:1" />
      <stop offset="50%" style="stop-color:#f0abfc;stop-opacity:1" />
      <stop offset="100%" style="stop-color:#d8b4fe;stop-opacity:1" />
    </linearGradient>
  </defs>
  
  <!-- Fundo com gradiente -->
  <rect width="32" height="32" rx="7" fill="url(#bgGradient)"/>
  
  <!-- Ãcone centralizado e escalado -->
  <g transform="translate(4, 4) scale(1)">
    <path d="M12 9C10.3431 9 9 7.65685 9 6C9 4.34315 10.3431 3 12 3C13.6569 3 15 4.34315 15 6C15 7.65685 13.6569 9 12 9Z" stroke="url(#iconGradient)" stroke-width="1.8"/>
    <path d="M5.5 21C3.84315 21 2.5 19.6569 2.5 18C2.5 16.3431 3.84315 15 5.5 15C7.15685 15 8.5 16.3431 8.5 18C8.5 19.6569 7.15685 21 5.5 21Z" stroke="url(#iconGradient)" stroke-width="1.8"/>
    <path d="M18.5 21C16.8431 21 15.5 19.6569 15.5 18C15.5 16.3431 16.8431 15 18.5 15C20.1569 15 21.5 16.3431 21.5 18C21.5 19.6569 20.1569 21 18.5 21Z" stroke="url(#iconGradient)" stroke-width="1.8"/>
    <path d="M20 13C20 10.6106 18.9525 8.46589 17.2916 7M4 13C4 10.6106 5.04752 8.46589 6.70838 7M10 20.748C10.6392 20.9125 11.3094 21 12 21C12.6906 21 13.3608 20.9125 14 20.748" stroke="url(#iconGradient)" stroke-width="1.8" stroke-linecap="round"/>
  </g>
</svg>
